<?xml version="1.0" standalone="no"?>
<!DOCTYPE svg PUBLIC "-//W3C//DTD SVG 20010904//EN"
 "http://www.w3.org/TR/2001/REC-SVG-20010904/DTD/svg10.dtd">
<svg version="1.0" xmlns="http://www.w3.org/2000/svg"
 width="300.000000pt" height="300.000000pt" viewBox="0 0 300.000000 300.000000"
 preserveAspectRatio="xMidYMid meet">
<metadata>
Created by potrace 1.10, written by Peter Selinger 2001-2011
</metadata>
<g transform="translate(0.000000,300.000000) scale(0.100000,-0.100000)"
fill="#000000" stroke="none">
<path d="M702 2775 c-76 -64 -105 -253 -62 -405 25 -87 25 -89 10 -155 -11
-44 -9 -59 13 -135 l25 -84 -64 -70 c-102 -109 -164 -266 -164 -411 0 -58 13
-67 25 -17 3 15 15 38 26 52 l20 25 -8 -40 c-15 -74 -9 -245 11 -320 10 -38
21 -73 25 -77 3 -4 6 21 6 55 1 63 37 177 56 177 5 0 9 -21 9 -46 0 -46 38
-174 66 -223 l15 -26 -4 38 c-1 20 1 37 5 37 4 0 8 -5 8 -12 0 -21 165 -342
168 -327 1 8 -1 56 -6 106 -4 51 -5 93 -1 93 4 0 15 -22 24 -50 9 -27 20 -50
25 -50 5 0 10 19 12 42 l4 43 18 -40 c10 -22 38 -85 63 -139 24 -54 50 -121
56 -147 13 -54 27 -65 27 -21 1 15 7 41 14 57 l13 30 49 -97 c26 -54 51 -92
55 -87 4 6 20 -24 37 -67 l31 -79 1 45 c1 38 3 42 13 27 7 -10 38 -55 70 -100
32 -45 70 -104 84 -131 l25 -49 32 59 c17 32 63 99 100 149 l69 90 -7 -45 c-9
-57 -5 -52 35 44 22 52 35 73 39 62 4 -11 21 14 55 79 55 104 66 107 81 22 l7
-42 19 68 c10 38 38 112 62 165 23 53 47 108 53 122 9 23 10 22 16 -18 7 -41
27 -59 27 -24 1 9 10 33 21 52 l20 35 -6 -109 c-5 -76 -3 -106 4 -101 6 3 11
12 11 18 0 7 32 75 70 152 39 76 70 145 70 151 0 7 5 16 11 19 7 5 8 -6 4 -32
-4 -28 3 -17 30 47 23 54 39 108 42 148 5 50 8 60 19 51 23 -19 54 -118 55
-177 l1 -57 20 75 c22 81 30 278 14 339 -12 47 10 32 36 -25 10 -24 22 -44 25
-44 14 0 -8 166 -32 237 -30 89 -69 155 -138 232 -37 41 -47 58 -43 75 4 11
14 54 23 94 15 67 15 77 1 122 -15 46 -15 53 2 97 26 70 43 189 36 249 -9 81
-42 159 -82 193 -37 33 -62 38 -97 20 -30 -16 -175 -139 -268 -226 l-76 -72
-38 10 c-28 8 -54 8 -96 -1 -45 -10 -76 -10 -140 -1 -63 10 -101 10 -171 0
-69 -9 -101 -9 -142 0 -36 8 -66 9 -94 3 -38 -9 -43 -7 -69 21 -52 55 -288
249 -320 263 -45 19 -57 18 -91 -11z m129 -58 c26 -22 48 -87 29 -87 -6 0 -10
4 -10 9 0 16 -77 62 -94 55 -22 -8 -31 -50 -17 -80 16 -37 14 -44 -17 -44 -30
0 -55 -30 -46 -55 4 -9 22 -26 40 -39 34 -23 34 -23 14 -41 -32 -29 -25 -59
25 -103 25 -22 45 -42 45 -45 0 -12 -41 -28 -53 -20 -6 4 -19 8 -27 8 -9 0
-22 28 -38 80 -19 67 -22 97 -19 185 6 193 70 260 168 177z m1431 32 c13 -6
31 -21 40 -34 23 -31 48 -127 48 -186 0 -61 -46 -241 -65 -255 -11 -9 -12 -18
-5 -45 6 -19 10 -64 10 -100 0 -59 -3 -68 -24 -82 -23 -15 -24 -15 -30 7 -3
12 -17 39 -30 59 -28 41 -22 47 18 16 26 -20 25 -19 -10 49 -25 48 -34 76 -29
89 6 16 9 14 16 -10 4 -16 13 -35 19 -43 7 -7 18 -31 25 -51 l13 -38 7 28 c10
39 -3 117 -19 111 -7 -3 -20 4 -29 14 -17 18 -16 20 10 37 61 38 76 76 47 120
-15 22 -14 24 11 41 40 26 50 52 29 75 -9 10 -25 19 -35 19 -26 0 -30 13 -16
49 14 38 1 66 -31 66 -26 0 -167 -136 -193 -187 -10 -20 -23 -39 -29 -43 -5
-3 -14 -24 -20 -46 -9 -33 -14 -39 -31 -34 -26 9 -120 -13 -165 -39 -37 -21
-38 -22 -40 -88 -1 -38 2 -68 7 -68 5 0 9 6 9 14 0 22 49 75 89 96 44 23 31
25 -38 4 -29 -8 -55 -13 -59 -10 -7 8 55 33 113 46 26 6 56 15 67 21 37 20 14
-14 -33 -49 -96 -71 -109 -84 -125 -113 -18 -36 -12 -34 51 16 22 17 57 41 78
54 36 22 39 22 63 6 26 -17 27 -24 9 -81 -4 -14 1 -30 19 -51 23 -27 24 -31 9
-46 -13 -13 -16 -34 -15 -97 3 -114 29 -149 70 -92 l21 27 28 -27 c38 -37 60
-37 33 0 -18 25 -50 119 -50 147 1 20 30 -42 46 -97 18 -62 30 -72 43 -36 l8
22 11 -21 c6 -11 9 -23 6 -26 -3 -3 1 -16 10 -29 9 -12 16 -35 16 -51 0 -16 5
-37 11 -49 16 -30 2 -34 -26 -8 -35 33 -33 6 5 -69 45 -90 54 -138 39 -207
l-12 -59 -10 35 c-19 72 -26 78 -26 23 -1 -84 -20 -152 -52 -187 l-28 -31 6
70 6 70 -66 -59 c-37 -32 -67 -57 -67 -55 0 2 14 31 30 63 17 32 30 65 30 73
0 9 6 13 15 9 10 -4 17 4 23 27 l8 32 16 -29 15 -29 6 34 c16 87 18 136 8 163
-18 45 -3 45 40 -1 21 -23 39 -41 39 -39 0 3 -13 33 -30 68 -16 34 -30 75 -30
91 0 26 -20 40 -20 15 0 -7 -13 10 -28 37 -38 69 -60 71 -96 5 -28 -51 -46
-57 -46 -16 0 13 -9 31 -21 41 -19 18 -21 18 -54 1 -29 -16 -37 -17 -50 -6
-15 12 -13 16 14 37 17 14 31 30 31 38 0 17 -77 84 -106 91 -13 3 -45 -1 -71
-10 -51 -18 -79 -20 -87 -8 -2 4 2 34 10 67 22 94 24 109 15 124 -7 10 -17
-10 -35 -70 -23 -75 -58 -259 -50 -259 2 0 13 18 24 40 11 22 34 47 53 56 31
16 32 16 16 -2 -34 -40 -30 -45 11 -15 24 17 60 36 82 41 45 13 74 2 37 -13
-23 -10 -23 -10 11 -17 68 -12 83 -40 23 -40 -21 0 -58 -9 -82 -20 -24 -11
-58 -20 -77 -20 -25 0 -42 -9 -68 -36 l-35 -36 -7 38 c-16 86 12 239 61 333
18 37 14 51 -10 31 -68 -57 -116 -326 -71 -394 11 -18 15 -37 11 -53 -3 -14
-1 -31 5 -38 6 -7 10 -26 8 -41 -3 -25 2 -30 31 -40 29 -9 36 -18 48 -60 8
-27 17 -64 20 -81 5 -31 3 -33 -22 -33 -23 0 -26 2 -15 15 42 51 -86 104 -200
83 -72 -13 -114 -42 -106 -74 5 -20 3 -24 -15 -24 -19 0 -21 4 -15 33 16 87
34 132 52 136 30 5 46 23 40 45 -3 11 2 28 11 38 9 10 13 26 10 39 -3 12 3 38
15 61 18 33 20 51 15 116 -9 114 -51 238 -92 272 -27 22 -27 4 -1 -47 37 -73
56 -161 56 -255 0 -92 -6 -109 -27 -78 -22 31 -72 53 -108 47 -21 -3 -41 0
-55 10 -12 9 -48 19 -79 22 l-56 6 22 23 c14 13 35 22 55 22 30 0 31 1 12 14
-10 8 -16 18 -12 21 9 10 110 -31 143 -57 26 -21 36 -9 10 12 -8 7 -15 17 -15
22 0 16 61 -33 81 -66 l19 -31 -6 35 c-24 142 -32 177 -62 258 -25 70 -33 27
-11 -63 10 -44 19 -86 19 -92 0 -18 -48 -16 -101 2 -55 20 -74 15 -127 -30
-48 -41 -51 -59 -20 -92 17 -18 19 -26 10 -35 -10 -10 -19 -8 -43 6 -29 17
-31 17 -49 1 -10 -9 -22 -30 -25 -46 -9 -39 -19 -37 -43 9 -26 51 -59 51 -87
0 -15 -27 -24 -35 -32 -27 -8 8 -13 2 -18 -23 -4 -18 -18 -53 -30 -78 -12 -25
-26 -56 -29 -70 -7 -22 -5 -22 12 5 10 17 30 38 43 47 l25 16 -4 -62 c-1 -33
1 -88 6 -121 l9 -60 15 33 14 33 12 -26 c6 -14 16 -25 21 -25 5 0 16 -20 24
-44 9 -25 27 -62 41 -83 25 -36 26 -36 26 -12 0 44 -44 137 -88 184 -47 51
-53 70 -20 60 17 -6 20 -4 14 10 -30 79 -32 186 -5 250 l12 30 7 -36 c9 -50
44 -103 92 -138 23 -17 43 -29 45 -27 2 1 -4 17 -12 34 -11 21 -15 52 -13 98
l3 67 32 -52 c40 -63 103 -96 207 -105 38 -4 82 -14 97 -22 34 -17 38 -28 8
-19 -28 9 -133 24 -138 19 -2 -2 8 -8 23 -14 41 -15 50 -52 26 -105 -11 -24
-20 -54 -20 -67 0 -13 -7 -48 -15 -78 -20 -74 -19 -91 4 -54 28 47 59 64 111
63 l45 -1 -32 -11 c-17 -7 -34 -15 -37 -18 -4 -3 32 -11 79 -18 66 -10 99 -10
155 -1 70 12 80 23 36 40 -17 7 -14 9 19 9 46 1 100 -28 110 -58 11 -37 23
-22 14 17 -5 20 -16 64 -23 97 -8 33 -21 74 -30 92 -21 40 -7 74 37 96 l32 16
-55 -6 c-30 -3 -70 -9 -89 -14 -19 -5 -37 -6 -39 -4 -10 10 69 35 141 44 102
12 144 34 187 98 19 29 39 52 44 53 15 0 -3 -122 -24 -157 -23 -39 -21 -40 29
-9 54 34 100 94 108 139 8 53 19 54 32 2 20 -79 7 -224 -22 -242 -6 -4 -8 3
-4 18 3 13 8 65 12 114 l6 90 -31 -53 c-30 -51 -105 -112 -138 -112 -23 0
-116 -42 -139 -63 -37 -33 -30 -72 17 -102 39 -25 54 -44 78 -100 11 -27 12
-23 7 38 -3 37 -10 79 -16 94 -9 25 -10 25 -24 7 -15 -19 -15 -19 -30 0 -11
15 -12 23 -4 33 13 15 79 46 120 56 14 4 42 18 63 32 47 32 56 31 56 -3 0 -16
6 -36 13 -46 11 -15 17 -16 35 -7 28 15 31 14 27 -9 -2 -12 -23 -42 -46 -68
-65 -73 -99 -164 -75 -196 14 -17 17 -17 47 -2 40 20 49 20 49 1 0 -19 -45
-62 -100 -95 -35 -21 -49 -40 -85 -115 -23 -49 -46 -103 -49 -119 -5 -21 -11
-27 -26 -23 -10 3 -27 -3 -37 -13 -17 -16 -19 -15 -35 18 l-18 35 39 42 c21
23 48 66 59 97 11 30 32 72 46 93 36 52 49 109 43 182 -5 61 -30 122 -54 130
-9 3 -8 -7 4 -34 22 -50 21 -165 0 -214 -9 -20 -27 -50 -40 -65 -13 -16 -27
-45 -31 -65 -3 -20 -17 -52 -29 -70 -29 -42 -105 -97 -148 -106 l-34 -6 27 24
c27 23 74 126 63 137 -3 3 -15 -4 -28 -16 -13 -12 -34 -22 -46 -22 l-23 0 26
31 c26 30 35 93 20 134 -12 31 -59 45 -156 45 -112 0 -139 -11 -151 -63 -11
-46 -5 -73 27 -119 l24 -36 -30 9 c-17 4 -39 16 -50 26 -19 17 -19 17 -12 -12
11 -47 42 -102 66 -119 33 -24 18 -26 -38 -7 -87 29 -150 95 -161 167 -3 22
-14 48 -24 59 -61 68 -80 203 -40 286 12 24 18 33 15 19 -4 -14 -8 -65 -9
-115 -2 -49 -1 -76 1 -60 8 54 26 84 70 120 24 20 44 44 44 54 0 36 -37 67
-102 86 -113 33 -164 68 -201 140 -16 29 -16 28 -16 -55 1 -47 4 -96 8 -110
l7 -25 9 25 c5 14 8 30 7 37 -5 25 18 21 82 -12 36 -19 81 -37 100 -41 40 -7
61 -27 52 -49 -8 -23 -25 -18 -36 10 -8 21 -13 24 -29 16 -58 -31 -77 -195
-32 -281 13 -25 29 -52 35 -60 7 -8 20 -40 29 -70 11 -36 31 -71 56 -98 39
-41 39 -43 26 -75 -9 -21 -10 -38 -4 -49 18 -33 1 -18 -20 18 -16 27 -26 34
-41 29 -16 -5 -22 0 -30 22 -6 15 -27 66 -47 112 -30 68 -46 90 -83 117 -25
18 -53 41 -62 50 -17 17 -18 16 -20 -2 -2 -26 1 -56 7 -73 5 -11 9 -11 23 3
26 23 32 20 32 -14 0 -34 7 -38 26 -12 12 15 13 15 14 0 0 -9 19 -56 42 -105
31 -64 43 -100 43 -134 0 -32 4 -45 12 -42 15 6 29 -65 16 -86 -19 -29 -29
-21 -62 51 -19 40 -37 81 -42 90 -11 22 -12 48 -1 48 4 0 20 -24 34 -53 l27
-52 0 35 c0 20 -14 67 -35 110 l-35 75 5 -50 5 -50 -22 45 c-26 53 -61 66 -76
28 -9 -23 -9 -23 -22 7 -15 35 -18 137 -5 180 9 28 8 29 -8 16 -10 -8 -24 -28
-33 -45 l-15 -30 -18 35 -18 34 30 5 c25 4 42 19 54 48 1 2 18 -5 38 -14 60
-29 54 -6 -14 56 l-65 58 -3 -29 c-2 -15 1 -44 7 -64 10 -39 3 -45 -22 -17
-28 31 -45 84 -52 165 -8 85 -16 91 -25 19 l-6 -47 -13 30 c-24 58 -18 124 21
210 20 44 39 91 43 105 l7 25 -31 -29 c-33 -32 -49 -30 -32 2 6 12 11 31 11
43 0 22 15 79 29 107 7 16 25 17 27 2 1 -5 2 -15 3 -21 3 -24 21 6 40 68 23
74 41 110 41 82 0 -25 -31 -121 -47 -146 -23 -34 3 -30 35 7 l26 29 18 -29
c21 -35 29 -37 51 -12 17 19 33 139 22 173 -13 41 -27 1 -33 -93 -3 -59 -8
-86 -13 -73 -21 54 2 195 39 233 28 30 33 51 18 80 -16 31 -12 43 21 60 18 10
29 6 75 -24 29 -20 62 -44 73 -54 29 -25 45 -33 45 -21 0 19 -53 73 -111 112
-58 39 -105 94 -61 70 11 -6 44 -16 74 -22 29 -6 70 -20 91 -30 42 -22 48 -13
15 18 -27 25 -152 65 -188 61 -20 -2 -26 2 -28 22 -2 14 -12 36 -22 50 -9 14
-27 45 -40 69 l-22 44 53 -45 c55 -46 89 -64 89 -49 0 5 -48 55 -107 112 -68
63 -95 95 -74 83 39 -21 173 -148 189 -178 9 -17 24 -20 108 -24 55 -2 118 -4
142 -4 45 1 267 1 330 1 20 0 81 1 134 3 91 3 99 5 114 28 25 38 148 153 185
174 21 11 -10 -23 -76 -87 -63 -60 -103 -106 -94 -106 37 -2 195 143 206 188
7 32 29 58 68 82 36 22 29 21 57 8z m-1352 -219 c4 0 11 -12 15 -27 3 -16 23
-46 43 -67 21 -22 29 -36 20 -33 -10 4 -18 4 -18 2 0 -10 26 -62 43 -87 18
-28 18 -28 -3 -28 -32 0 -60 -18 -60 -40 0 -10 12 -32 26 -49 l25 -30 -33 -21
c-34 -20 -88 -27 -88 -11 0 5 12 19 28 30 l27 20 -32 1 c-34 0 -41 8 -22 27 8
8 8 17 0 31 -6 11 -11 25 -11 31 0 19 43 51 69 51 19 1 7 10 -49 38 -54 27
-77 44 -84 63 -14 40 -2 59 36 59 l33 0 -40 19 c-22 10 -46 28 -53 40 -14 23
-10 26 19 11 26 -14 24 2 -2 26 -20 17 -49 72 -49 91 0 4 34 -27 76 -69 41
-43 79 -78 84 -78z m1327 103 c-8 -15 -24 -37 -36 -47 -27 -25 -27 -40 0 -26
11 7 22 10 25 8 8 -9 -31 -51 -60 -64 -31 -13 -31 -13 -5 -14 38 0 53 -21 38
-54 -12 -26 -53 -56 -119 -88 -26 -12 -30 -17 -15 -17 51 -2 84 -58 53 -90
-11 -10 -10 -15 4 -25 22 -16 13 -26 -21 -26 l-26 -1 28 -24 c15 -13 27 -27
27 -31 0 -14 -84 5 -103 24 -19 20 -19 20 2 41 41 41 19 91 -40 91 l-22 0 20
23 c12 12 28 39 37 60 15 38 15 38 -7 32 -17 -5 -13 1 15 24 20 17 42 47 49
65 7 19 23 39 35 45 12 5 46 40 76 76 52 65 73 74 45 18z m-1497 -105 c32 -23
38 -38 17 -38 -16 0 -57 37 -57 50 0 15 8 12 40 -12z m1560 12 c0 -15 -38 -50
-55 -50 -22 0 -18 12 13 37 30 24 42 28 42 13z m-1480 -181 c50 -25 40 -37
-15 -19 -37 12 -75 52 -75 79 0 12 6 9 23 -11 12 -14 42 -36 67 -49z m1436 26
c-19 -29 -70 -58 -94 -53 -11 2 -1 12 30 31 26 15 53 38 59 50 8 14 14 17 17
9 2 -7 -3 -24 -12 -37z m-1465 -207 c-37 -59 -40 -80 -8 -50 35 33 40 27 12
-14 -14 -20 -25 -45 -25 -55 0 -27 -12 -29 -39 -8 -22 18 -23 24 -18 97 3 42
10 88 16 102 10 21 11 17 6 -25 -3 -27 -1 -63 4 -80 5 -16 10 -22 10 -13 1 10
16 47 34 84 28 58 32 63 35 39 2 -17 -8 -45 -27 -77z m59 -16 c0 -32 26 -55
70 -61 l42 -6 -22 -28 c-18 -22 -25 -25 -36 -16 -18 15 -46 -8 -64 -51 -7 -16
-20 -32 -30 -35 -26 -8 -68 -43 -81 -66 -9 -18 -7 -19 15 -13 24 6 24 4 -9
-31 -41 -43 -43 -51 -12 -59 21 -6 20 -7 -11 -23 -18 -9 -37 -24 -42 -34 -9
-16 -6 -17 27 -12 l38 6 -36 -34 c-20 -19 -46 -54 -59 -78 -26 -53 -55 -136
-37 -107 23 36 60 77 64 72 3 -3 -5 -19 -17 -36 -13 -18 -36 -62 -52 -98 l-29
-67 5 77 c4 67 15 106 54 180 2 4 -12 1 -32 -7 -50 -21 -63 -19 -32 6 15 12
40 48 57 81 l31 61 -31 -6 -30 -6 32 46 c52 75 121 140 158 149 l34 7 -28 12
c-24 10 -26 13 -13 24 23 20 56 98 56 136 0 19 5 35 10 35 6 0 10 -8 10 -18z
m1331 -74 c7 -18 23 -46 37 -62 l24 -29 -24 -13 c-33 -19 -36 -18 -54 19 -22
41 -44 57 -70 51 -15 -4 -26 2 -37 20 l-17 25 41 -1 c25 0 47 6 57 15 19 20
26 16 43 -25z m-131 -122 c0 -33 -5 -68 -10 -76 -7 -11 -10 3 -10 46 0 34 -2
83 -6 110 l-5 49 15 -34 c9 -19 16 -60 16 -95z m221 -25 c22 -13 139 -152 139
-164 0 -2 -14 -2 -31 1 l-31 4 30 -58 c32 -63 60 -94 88 -98 26 -4 28 -23 4
-36 -19 -10 -21 -9 -16 7 5 15 -3 21 -38 34 l-43 16 23 -46 c14 -28 27 -79 34
-130 10 -82 6 -121 -7 -71 -4 14 -25 62 -49 107 -44 88 -42 97 8 30 23 -32 29
-36 23 -17 -16 58 -55 130 -91 170 l-39 43 33 -6 c45 -9 38 11 -14 40 -36 21
-37 23 -16 29 29 8 28 16 -10 60 -30 34 -31 36 -9 29 22 -7 22 -7 6 19 -10 14
-29 35 -44 47 l-26 20 25 -7 c14 -3 37 -14 51 -23z m-1081 -141 c15 0 70 -52
64 -61 -7 -12 -81 -12 -103 1 -10 5 -21 16 -24 24 -8 20 21 49 40 42 8 -3 18
-6 23 -6z m173 -45 c12 -19 30 -37 40 -41 15 -5 25 -24 13 -24 -24 0 -59 27
-85 65 -17 25 -31 48 -31 51 0 14 43 -22 63 -51z m308 1 c-30 -43 -67 -73 -77
-63 -4 4 23 39 74 94 36 39 37 20 3 -31z m184 24 c0 -30 -41 -53 -87 -48 l-32
3 34 38 c25 29 39 37 59 35 20 -2 26 -9 26 -28z m-1274 -22 c3 -25 -3 -41 -24
-74 -27 -41 -40 -44 -31 -6 17 70 51 120 55 80z m1873 -20 c7 -18 17 -46 20
-63 7 -29 7 -29 -12 -12 -26 23 -46 72 -38 92 8 23 16 18 30 -17z m-1146 -10
c19 -19 14 -28 -13 -28 -27 0 -28 1 -19 24 7 19 16 20 32 4z m417 -9 c0 -8
-10 -15 -23 -17 -21 -3 -22 -1 -12 18 12 23 35 22 35 -1z m-1175 -131 c0 -10
-12 -10 -29 1 -8 5 -11 16 -7 27 6 16 7 16 21 -2 8 -10 15 -22 15 -26z m146
-112 c10 -55 -55 -127 -72 -81 -8 19 43 128 55 120 6 -3 13 -21 17 -39z m1664
-16 c17 -34 28 -65 25 -70 -11 -18 -36 -10 -61 18 -19 22 -23 34 -18 62 11 66
16 66 54 -10z m-741 19 c33 -14 28 -15 -90 -14 -68 0 -137 -4 -154 -8 -43 -12
-19 10 31 29 48 17 165 14 213 -7z m-17 -51 c10 -6 7 -13 -12 -28 -51 -40
-140 -38 -179 4 l-23 24 24 5 c39 7 177 4 190 -5z m-822 -205 c29 -55 44 -98
48 -134 4 -45 7 -50 18 -35 11 16 13 16 19 -3 6 -21 -9 -61 -25 -61 -15 0 -21
18 -24 69 -1 34 -16 77 -53 152 -28 57 -53 111 -56 119 -3 8 -6 -12 -6 -45 -1
-43 -4 -56 -11 -45 -13 20 -12 86 1 135 l11 40 18 -55 c9 -30 36 -92 60 -137z
m1538 122 c11 -51 6 -101 -9 -111 -5 -3 -9 21 -10 53 l0 58 -14 -35 c-7 -19
-33 -77 -59 -129 -42 -87 -59 -150 -36 -136 5 3 5 -7 -1 -25 -13 -35 -17 -36
-35 -12 -17 22 -18 42 0 42 8 0 16 16 19 44 4 24 31 94 62 156 30 62 55 124
55 138 0 39 16 14 28 -43z m-716 -122 c23 -20 23 -62 1 -108 -16 -35 -16 -35
9 -63 24 -25 25 -29 13 -52 -22 -38 -18 -57 15 -72 32 -14 36 -23 20 -48 -7
-12 -13 -11 -34 9 l-25 23 -34 -21 c-42 -25 -58 -26 -119 -4 -45 16 -48 16
-69 -3 -21 -18 -21 -18 -35 1 -20 27 -18 33 12 37 41 5 52 31 30 69 -18 30
-18 31 3 53 25 27 26 35 4 96 -16 45 -16 49 0 73 19 29 37 33 127 29 42 -2 71
-9 82 -19z m578 -4 c-13 -24 -22 -24 -37 0 -11 17 -9 20 10 23 31 6 39 0 27
-23z m-60 -24 c11 -39 10 -55 -5 -110 -18 -66 -35 -93 -35 -55 0 55 -61 25
-78 -38 -9 -35 -10 -34 -12 28 -1 47 -4 58 -9 40 -5 -14 -18 -44 -30 -68 -12
-23 -28 -66 -36 -95 l-14 -52 0 42 c-1 31 13 73 47 148 46 103 47 105 64 83
16 -22 17 -22 20 22 l3 45 22 -24 21 -23 12 22 c7 12 10 35 8 51 -7 45 8 34
22 -16z m-1390 6 c0 -5 3 -17 6 -26 6 -15 4 -15 -15 -4 -24 16 -28 39 -6 39 8
0 15 -4 15 -9z m1260 -258 c0 -5 -18 -48 -39 -98 -35 -81 -41 -90 -66 -91 -25
-1 -26 1 -21 29 3 16 6 40 6 54 0 20 3 22 19 14 22 -12 43 7 66 62 13 32 35
51 35 30z m-661 -110 c21 -40 35 -73 32 -73 -15 0 -81 78 -96 112 -43 104 5
75 64 -39z m405 25 c-17 -35 -73 -98 -86 -98 -7 0 46 106 81 160 l16 25 3 -27
c2 -15 -4 -42 -14 -60z m-554 29 c0 -12 9 -64 20 -116 11 -52 18 -96 15 -99
-5 -5 -5 -3 -30 67 -20 59 -32 187 -17 177 7 -4 12 -17 12 -29z m641 -122
c-35 -130 -50 -156 -140 -253 -58 -63 -126 -147 -150 -185 -12 -21 -27 -35
-32 -31 -5 3 -32 38 -59 79 -27 40 -63 86 -80 102 -55 50 -64 60 -98 106 -30
41 -32 49 -26 98 3 30 1 79 -4 109 -11 59 -7 77 10 45 6 -11 30 -38 53 -60 38
-37 41 -44 37 -81 l-4 -41 66 -37 c87 -47 125 -47 210 -1 71 39 80 53 66 91
-13 34 -14 31 19 48 16 9 43 34 60 58 34 46 36 40 20 -46 -6 -32 -7 -70 -3
-85 6 -22 11 -11 30 64 12 50 23 102 23 117 1 14 4 35 9 45 17 42 12 -76 -7
-142z m-390 65 c5 0 9 5 9 11 0 6 5 7 13 2 21 -13 50 -14 59 -1 6 10 8 10 8 1
0 -13 26 -13 47 0 6 4 14 1 16 -5 3 -7 6 3 7 22 1 33 1 34 15 16 22 -29 19
-99 -4 -120 -17 -16 -18 -16 -14 7 5 26 -18 50 -25 28 -3 -9 -9 -8 -23 5 -17
16 -19 16 -25 0 -6 -15 -8 -16 -24 -1 -16 15 -18 14 -24 -1 -5 -13 -9 -14 -21
-4 -12 10 -16 9 -21 -4 -3 -9 -3 -24 0 -33 4 -13 0 -11 -14 6 -23 26 -26 67
-8 108 l12 28 4 -32 c2 -18 7 -33 13 -33z m112 -84 c8 -20 -1 -26 -37 -26 -44
0 -64 14 -40 29 27 15 71 14 77 -3z m-113 -52 c48 -18 95 -17 157 4 l51 18 4
-28 c4 -24 2 -27 -14 -23 -11 4 -32 -6 -59 -27 l-41 -33 -18 23 c-18 22 -19
22 -25 2 -8 -26 -12 -25 -58 10 -22 16 -45 26 -53 23 -10 -4 -14 3 -14 27 0
27 3 31 18 25 9 -4 33 -14 52 -21z"/>
<path d="M1160 2278 c25 -18 55 -52 67 -73 24 -43 28 -33 17 37 -6 34 -11 39
-48 49 -22 5 -50 13 -61 16 -11 3 0 -10 25 -29z"/>
</g>
</svg>
